<svg transform="scale(1)" version="1.1" id="MHBkQuADPd" xmlns="http://www.w3.org/2000/svg" xmlns:xlink="http://www.w3.org/1999/xlink" x="0px" y="0px" viewBox="0 0 500 500" xml:space="preserve" class="pbimage_pbimage__wrapper__image__0LEis false"><title>Inbox Empty</title><style type="text/css"> .st0{fill:#68E1FD;} .st1{fill:#231F20;} .st2{fill:#FFFFFF;} .st3{fill:#D1D3D4;}
 .st3{fill:#D1D3D4;}
 .st2{fill:#FFFFFF;}
 .st1{fill:#231F20;}
 .st0{fill:#68E1FD;}</style><g id="box"><path class="st0" d="M356.6,162.6H212.7v112.6h181.6v-77.7C394.3,178.2,377.4,162.6,356.6,162.6z" fill="#68E1FD"></path><path class="st1" d="M394.3,275.8H212.7c-0.4,0-0.6-0.3-0.6-0.6l0,0V162.6c0-0.4,0.3-0.6,0.6-0.6h143.9c21.1,0,38.3,15.9,38.3,35.5
		v77.7C394.9,275.5,394.6,275.8,394.3,275.8z M213.3,274.5h180.3v-77.1c0-18.9-16.6-34.2-37.1-34.2H213.3L213.3,274.5z" fill="#231F20"></path><path class="st1" d="M250.4,198.9v76.4H175v-76.4c0-20,16.2-36.2,36.2-36.2h3.2c14.9,0.1,28.2,9.4,33.5,23.3c0.5,1.4,1,2.8,1.3,4.2
		c0,0,0,0.1,0,0.1c0.1,0.1,0.1,0.3,0.1,0.4C250,193.3,250.4,196.1,250.4,198.9z" fill="#231F20"></path><path class="st1" d="M250.4,275.9H175c-0.4,0-0.7-0.3-0.7-0.7l0,0v-76.3c0-20.4,16.5-36.9,36.9-36.9h3.2
		c15.2,0.1,28.8,9.6,34.2,23.8c0.5,1.4,1,2.9,1.3,4.3l0,0l0,0c0.1,0.2,0.1,0.4,0.1,0.6c0.7,2.7,1,5.5,1,8.3v76.3
		C251.1,275.6,250.8,275.9,250.4,275.9C250.4,275.9,250.4,275.9,250.4,275.9z M175.7,274.5h74v-75.6c0-2.7-0.3-5.4-0.9-8.1
		c0-0.1,0-0.2-0.1-0.4c0,0,0-0.1,0-0.1l0,0c-0.3-1.4-0.8-2.8-1.3-4.1c-5.2-13.7-18.3-22.7-32.9-22.9h-3.2
		c-19.6,0-35.5,15.8-35.5,35.4c0,0.1,0,0.1,0,0.2L175.7,274.5z" fill="#231F20"></path><path class="st2" d="M175,275.2h75.4l0,0V342c0,19-15.4,34.4-34.3,34.4c0,0,0,0-0.1,0h-6.7c-19,0-34.3-15.4-34.3-34.4V275.2
		L175,275.2z" fill="#FFFFFF"></path><path class="st1" d="M216,377h-6.7c-19.3,0-35-15.7-35-35l0,0v-66.8c0-0.4,0.3-0.6,0.6-0.6h0h75.4c0.4,0,0.6,0.3,0.6,0.6l0,0V342
		C251,361.3,235.3,377,216,377z M175.6,275.8V342c0,18.6,15.1,33.7,33.7,33.7h6.7c18.6,0,33.7-15.1,33.7-33.7v-66.2L175.6,275.8z" fill="#231F20"></path><path class="st3" d="M231.3,336.4h-37.2c-0.4,0-0.7-0.3-0.7-0.7c0-0.4,0.3-0.7,0.7-0.7h37.2c0.4,0,0.7,0.3,0.7,0.7
		C232,336.1,231.7,336.4,231.3,336.4C231.3,336.4,231.3,336.4,231.3,336.4z" fill="#D1D3D4"></path><circle class="st2" cx="290.8" cy="212" r="7.2" fill="#FFFFFF"></circle><path class="st1" d="M290.8,219.9c-4.3,0-7.9-3.5-7.8-7.9c0-4.3,3.5-7.9,7.9-7.8c4.3,0,7.8,3.5,7.8,7.9c0,0,0,0,0,0
		C298.7,216.4,295.2,219.9,290.8,219.9z M290.8,205.5c-3.6,0-6.6,2.9-6.6,6.6c0,3.6,2.9,6.6,6.6,6.6s6.6-2.9,6.6-6.6
		S294.5,205.5,290.8,205.5L290.8,205.5z" fill="#231F20"></path><path class="st1" d="M290.8,205.5c-0.4,0-0.6-0.3-0.6-0.6v0v-88.7c0-0.4,0.3-0.6,0.6-0.6c0.4,0,0.6,0.3,0.6,0.6v88.7
		C291.5,205.2,291.2,205.5,290.8,205.5z" fill="#231F20"></path><polygon class="st2" points="317.3,122.8 290.8,134.8 290.8,116.1 317.3,116.1 	" fill="#FFFFFF"></polygon><path class="st1" d="M290.8,135.5c-0.1,0-0.3,0-0.4-0.1c-0.2-0.1-0.3-0.3-0.3-0.6v-18.6c0-0.4,0.3-0.7,0.7-0.7l0,0h26.5
		c0.4,0,0.7,0.3,0.7,0.7v0v6.7c0,0.3-0.2,0.5-0.4,0.6l-26.5,11.9C291,135.4,290.9,135.5,290.8,135.5z M291.5,116.8v16.8l25.1-11.3
		v-5.5H291.5z M317.3,122.8L317.3,122.8z" fill="#231F20"></path><rect class="st2" x="275.5" y="275.2" width="30.4" height="7.2" fill="#FFFFFF"></rect><path class="st1" d="M305.9,283.1h-30.4c-0.4,0-0.6-0.3-0.6-0.6v0v-7.2c0-0.4,0.3-0.6,0.6-0.6h0h30.4c0.4,0,0.6,0.3,0.6,0.6v0v7.2
		C306.6,282.8,306.3,283.1,305.9,283.1L305.9,283.1z M276.2,281.8h29.1v-6h-29.1V281.8z" fill="#231F20"></path><polyline class="st2" points="280.4,383.9 280.4,282.4 298.7,282.4 298.7,383.9 	" fill="#FFFFFF"></polyline><path class="st1" d="M298.7,384.6c-0.4,0-0.6-0.3-0.6-0.6v0V283.1h-17v100.9c0,0.4-0.3,0.6-0.6,0.6c-0.4,0-0.6-0.3-0.6-0.6V282.4
		c0-0.4,0.3-0.6,0.6-0.6h0h18.3c0.4,0,0.6,0.3,0.6,0.6v0v101.5C299.4,384.3,299.1,384.6,298.7,384.6
		C298.7,384.6,298.7,384.6,298.7,384.6z" fill="#231F20"></path><polygon class="st1" points="280.4,298.3 298.7,311.8 298.7,282.4 280.4,282.4 	" fill="#231F20"></polygon><path class="st1" d="M298.7,312.5c-0.2,0-0.3,0-0.4-0.1L280,298.9c-0.2-0.1-0.3-0.3-0.3-0.6v-15.9c0-0.4,0.3-0.7,0.7-0.7h0h18.3
		c0.4,0,0.7,0.3,0.7,0.7v0v29.3C299.4,312.1,299.1,312.4,298.7,312.5C298.7,312.5,298.7,312.5,298.7,312.5L298.7,312.5z M281.1,298
		l16.9,12.4v-27.2h-16.9L281.1,298z" fill="#231F20"></path></g><g id="empty"><path class="st3" d="M219.1,229.9H219l-1.4-0.2c-0.4-0.1-0.6-0.4-0.6-0.8c0,0,0,0,0,0c0.1-0.4,0.4-0.6,0.8-0.6c0,0,0,0,0,0l1.4,0.2
		c0.4,0.1,0.6,0.4,0.6,0.8C219.8,229.7,219.5,229.9,219.1,229.9L219.1,229.9z"></path><path class="st3" d="M124,276.7c-0.4,0-0.7-0.3-0.7-0.7c0-0.1,0-0.2,0.1-0.3c0.4-0.9,0.8-1.7,1.2-2.6c0.2-0.3,0.6-0.5,0.9-0.3
		c0,0,0,0,0,0c0.3,0.2,0.5,0.6,0.3,0.9c-0.4,0.8-0.8,1.7-1.2,2.5C124.5,276.5,124.3,276.7,124,276.7z M126.5,271.7
		c-0.1,0-0.2,0-0.3-0.1c-0.3-0.2-0.5-0.6-0.3-0.9c0,0,0,0,0,0c0.5-0.8,1-1.6,1.5-2.4c0.2-0.3,0.6-0.4,1-0.2c0,0,0,0,0,0
		c0.3,0.2,0.4,0.6,0.2,1c0,0,0,0,0,0c-0.5,0.8-1,1.6-1.4,2.4C127,271.6,126.8,271.7,126.5,271.7L126.5,271.7z M129.5,266.9
		c-0.1,0-0.3,0-0.4-0.1c-0.3-0.2-0.4-0.6-0.2-1c0,0,0,0,0,0c0.6-0.8,1.1-1.5,1.7-2.3c0.2-0.3,0.7-0.4,1-0.1c0,0,0,0,0,0
		c0.3,0.2,0.4,0.7,0.1,1c0,0,0,0,0,0c-0.6,0.7-1.1,1.5-1.7,2.2C130,266.8,129.8,266.9,129.5,266.9L129.5,266.9z M160.1,266.8
		L160.1,266.8c-1-0.1-2-0.3-2.9-0.7c-0.4-0.2-0.5-0.6-0.4-0.9c0.1-0.4,0.6-0.5,0.9-0.4c0,0,0,0,0,0c0.8,0.3,1.6,0.6,2.5,0.6
		c0.4,0,0.7,0.3,0.7,0.7c0,0,0,0,0,0C160.8,266.6,160.5,266.8,160.1,266.8L160.1,266.8z M162.9,266.5c-0.4,0-0.7-0.3-0.7-0.7
		c0-0.3,0.2-0.6,0.5-0.7c0.8-0.2,1.5-0.7,2.1-1.2c0.3-0.3,0.7-0.3,1,0s0.3,0.7,0,1c-0.8,0.7-1.7,1.3-2.7,1.6
		C163,266.5,163,266.5,162.9,266.5L162.9,266.5z M155,264.7c-0.2,0-0.3-0.1-0.4-0.2c-0.8-0.6-1.5-1.3-2.1-2.1
		c-0.2-0.3-0.2-0.7,0.1-1c0,0,0,0,0,0c0.3-0.2,0.7-0.2,1,0.1c0,0,0,0,0,0c0.5,0.7,1.1,1.3,1.8,1.9c0.3,0.2,0.3,0.7,0.1,1
		C155.4,264.6,155.2,264.6,155,264.7L155,264.7z M166.5,262.7h-0.1c-0.4-0.1-0.6-0.4-0.6-0.8c0,0,0,0,0,0c0-0.2,0.1-0.4,0.1-0.6
		c0-0.6-0.1-1.2-0.3-1.8c-0.1-0.4,0.1-0.8,0.4-0.9c0.4-0.1,0.8,0.1,0.9,0.4c0.3,0.7,0.4,1.5,0.4,2.2c0,0.3,0,0.6-0.1,0.9
		C167.2,262.4,166.9,262.6,166.5,262.7L166.5,262.7z M133,262.6c-0.4,0-0.7-0.3-0.7-0.7c0-0.2,0.1-0.3,0.2-0.5
		c0.6-0.7,1.3-1.4,2-2.1c0.3-0.3,0.7-0.3,1,0s0.3,0.7,0,1c-0.7,0.6-1.3,1.3-1.9,2C133.5,262.5,133.3,262.6,133,262.6L133,262.6z
		 M151.6,260.3c-0.3,0-0.5-0.2-0.6-0.4c-0.4-0.9-0.7-1.9-0.9-2.8c-0.1-0.4,0.2-0.7,0.6-0.8s0.7,0.2,0.8,0.6c0.2,0.9,0.4,1.7,0.8,2.5
		c0.2,0.3,0,0.8-0.3,0.9C151.9,260.3,151.7,260.3,151.6,260.3L151.6,260.3z M137.1,258.7c-0.2,0-0.4-0.1-0.5-0.2
		c-0.3-0.3-0.2-0.7,0.1-1c0,0,0,0,0,0c0.7-0.6,1.5-1.2,2.3-1.8c0.3-0.2,0.7-0.2,1,0.1c0,0,0,0,0,0c0.2,0.3,0.2,0.8-0.2,1
		c0,0,0,0,0,0c-0.7,0.5-1.5,1.1-2.2,1.7C137.4,258.6,137.3,258.7,137.1,258.7L137.1,258.7z M164.9,257.5c-0.2,0-0.4-0.1-0.6-0.3
		c-0.5-0.6-1.1-1.2-1.7-1.7l-0.1-0.1c-0.3-0.2-0.4-0.6-0.2-1c0,0,0,0,0,0c0.2-0.3,0.7-0.4,1-0.2c0,0,0,0,0,0l0.2,0.1
		c0.8,0.6,1.4,1.2,2,2c0.2,0.3,0.2,0.7-0.1,1c0,0,0,0,0,0C165.2,257.4,165.1,257.4,164.9,257.5L164.9,257.5z M141.7,255.5
		c-0.4,0-0.7-0.3-0.7-0.7c0-0.3,0.1-0.5,0.4-0.6c0.8-0.5,1.7-0.9,2.6-1.3c0.4-0.1,0.8,0.1,0.9,0.4c0.1,0.3,0,0.7-0.3,0.9
		c-0.8,0.4-1.6,0.8-2.4,1.2C141.9,255.4,141.8,255.4,141.7,255.5L141.7,255.5z M150.7,254.8L150.7,254.8c-0.4,0-0.7-0.4-0.7-0.8
		c0,0,0,0,0,0c0.1-1,0.2-2,0.5-2.9c0.1-0.4,0.5-0.6,0.9-0.5c0.2,0.1,0.4,0.3,0.5,0.5c0.1-0.1,0.3-0.2,0.5-0.2h0.4
		c0.8,0,1.6,0,2.4,0.1c0.4,0,0.7,0.4,0.6,0.8c0,0,0,0,0,0c0,0.4-0.4,0.7-0.8,0.6c0,0,0,0,0,0c-0.8-0.1-1.5-0.1-2.3-0.1h-0.4
		c-0.3,0-0.5-0.1-0.6-0.4c-0.2,0.7-0.3,1.4-0.3,2.2C151.4,254.4,151.1,254.7,150.7,254.8L150.7,254.8z M160.5,254
		c-0.1,0-0.2,0-0.3-0.1c-0.8-0.4-1.6-0.7-2.5-0.9c-0.4-0.1-0.6-0.5-0.5-0.9c0,0,0,0,0,0c0.1-0.4,0.5-0.6,0.8-0.5c0,0,0,0,0,0
		c0.9,0.3,1.9,0.6,2.7,1c0.3,0.2,0.5,0.6,0.3,0.9C161,253.8,160.8,254,160.5,254L160.5,254z M146.8,253.2c-0.4,0-0.7-0.3-0.7-0.7
		c0-0.3,0.2-0.6,0.5-0.7c0.9-0.3,1.9-0.5,2.8-0.6c0.4-0.1,0.7,0.2,0.8,0.6c0.1,0.4-0.2,0.7-0.6,0.8c-0.9,0.1-1.8,0.3-2.6,0.6
		L146.8,253.2z M152.1,249.4c-0.4,0-0.7-0.3-0.7-0.7c0-0.1,0-0.2,0.1-0.3c0.4-0.9,0.9-1.7,1.4-2.6c0.2-0.3,0.6-0.4,1-0.2
		s0.4,0.6,0.2,1l0,0c-0.5,0.8-0.9,1.6-1.3,2.4C152.6,249.2,152.4,249.3,152.1,249.4L152.1,249.4z M155.1,244.6
		c-0.2,0-0.3-0.1-0.4-0.1c-0.3-0.2-0.4-0.7-0.1-1c0,0,0,0,0,0c0.6-0.7,1.2-1.5,1.9-2.2c0.3-0.3,0.7-0.3,1,0c0,0,0,0,0,0
		c0.3,0.3,0.3,0.7,0,1c-0.6,0.7-1.3,1.4-1.8,2.1C155.5,244.5,155.3,244.6,155.1,244.6L155.1,244.6z M159.5,240.3l-0.6-0.4l-0.4-0.5
		c0.8-0.7,1.5-1.2,2.2-1.8c0.3-0.3,0.7-0.2,1,0.1c0.3,0.3,0.2,0.7-0.1,1c0,0,0,0-0.1,0C160.9,239.1,160.2,239.7,159.5,240.3
		L159.5,240.3z M163.4,237.2c-0.2,0-0.4-0.1-0.6-0.3c-0.2-0.3-0.1-0.8,0.2-1c0.8-0.5,1.6-1,2.4-1.5c0.3-0.2,0.8-0.1,1,0.2
		c0,0,0,0,0,0c0.2,0.3,0.1,0.7-0.2,1c0,0,0,0-0.1,0c-0.8,0.5-1.6,1-2.3,1.5C163.7,237.1,163.6,237.1,163.4,237.2L163.4,237.2z
		 M168.2,234.3c-0.3,0-0.5-0.1-0.6-0.4c-0.2-0.3-0.1-0.8,0.3-0.9c0,0,0,0,0,0c0.8-0.4,1.7-0.8,2.6-1.2c0.3-0.2,0.8,0,0.9,0.3
		c0,0,0,0,0,0c0.2,0.4,0,0.8-0.3,0.9c0,0,0,0,0,0c-0.9,0.4-1.7,0.8-2.5,1.2C168.5,234.3,168.4,234.3,168.2,234.3L168.2,234.3z
		 M173.4,232c-0.3,0-0.5-0.2-0.6-0.4c-0.1-0.4,0-0.8,0.4-0.9c0.9-0.3,1.8-0.6,2.7-0.9c0.4-0.1,0.8,0.1,0.9,0.5s-0.1,0.8-0.5,0.9
		c-0.9,0.3-1.8,0.6-2.6,0.9C173.5,232,173.5,232,173.4,232L173.4,232z M178.7,230.3c-0.4,0-0.7-0.3-0.7-0.7c0-0.3,0.2-0.6,0.5-0.6
		c0.9-0.2,1.8-0.5,2.8-0.7c0.4-0.1,0.8,0.2,0.8,0.5c0.1,0.4-0.2,0.8-0.5,0.8c-0.9,0.2-1.8,0.4-2.7,0.7
		C178.8,230.3,178.8,230.3,178.7,230.3L178.7,230.3z M215,229.2h-0.1c-0.9-0.1-1.8-0.3-2.8-0.4c-0.4-0.1-0.6-0.4-0.6-0.8
		c0-0.4,0.4-0.7,0.8-0.6c0,0,0,0,0,0l2.8,0.4c0.4,0.1,0.6,0.4,0.6,0.8C215.6,229,215.3,229.2,215,229.2z M184.2,229.1
		c-0.4,0-0.7-0.3-0.7-0.7c0-0.3,0.2-0.6,0.6-0.7c0.9-0.2,1.9-0.3,2.8-0.4c0.4-0.1,0.7,0.2,0.8,0.6c0.1,0.4-0.2,0.7-0.6,0.8l0,0
		c-0.9,0.1-1.8,0.3-2.8,0.4L184.2,229.1z M209.4,228.5L209.4,228.5c-1-0.1-1.9-0.2-2.9-0.3c-0.4,0-0.7-0.4-0.6-0.8
		c0-0.4,0.4-0.7,0.8-0.6c0.9,0.1,1.9,0.2,2.8,0.3c0.4,0,0.7,0.4,0.7,0.7C210.1,228.2,209.8,228.5,209.4,228.5L209.4,228.5z
		 M189.8,228.3c-0.4,0-0.7-0.4-0.7-0.7c0-0.3,0.3-0.6,0.6-0.7c0.9-0.1,1.9-0.2,2.8-0.2c0.4,0,0.7,0.2,0.7,0.6c0,0,0,0,0,0.1
		c0,0.4-0.3,0.7-0.6,0.7c0,0,0,0,0,0C191.7,228.1,190.8,228.2,189.8,228.3L189.8,228.3z M203.8,228L203.8,228
		c-0.9-0.1-1.9-0.1-2.8-0.1c-0.4,0-0.7-0.3-0.7-0.7c0,0,0,0,0,0c0-0.4,0.3-0.7,0.7-0.7l2.8,0.1c0.4,0,0.7,0.3,0.7,0.7
		C204.6,227.7,204.3,228,203.8,228L203.8,228z M195.4,227.9c-0.4,0-0.7-0.3-0.7-0.7c0-0.4,0.3-0.7,0.7-0.7c0.9,0,1.9,0,2.8-0.1l0,0
		c0.4,0,0.7,0.3,0.7,0.7c0,0.4-0.3,0.7-0.7,0.7C197.3,227.9,196.4,227.9,195.4,227.9L195.4,227.9z"></path><path class="st3" d="M122.4,280.7c-0.1,0-0.1,0-0.2,0c-0.4-0.1-0.6-0.5-0.4-0.9c0,0,0,0,0,0c0.2-0.5,0.3-0.9,0.5-1.3
		c0.1-0.4,0.5-0.5,0.9-0.4c0.4,0.1,0.5,0.5,0.4,0.9c-0.2,0.4-0.3,0.9-0.5,1.3C123,280.5,122.7,280.7,122.4,280.7z"></path><path class="st3" d="M201.4,209c-0.3,0-0.6-0.2-0.7-0.6c-0.1-0.4,0.2-0.7,0.6-0.8c0,0,0,0,0,0c0.4-0.1,0.8-0.2,1.2-0.4
		c0.4-0.1,0.8,0,0.9,0.4c0.1,0.4,0,0.8-0.4,0.9c0,0,0,0,0,0c-0.5,0.2-1,0.3-1.5,0.4L201.4,209z"></path><path class="st3" d="M198.7,209.1L198.7,209.1c-1-0.1-2-0.3-2.9-0.5c-0.4-0.1-0.6-0.5-0.5-0.8c0,0,0,0,0,0c0.1-0.4,0.5-0.6,0.9-0.5
		c0,0,0,0,0,0c0.9,0.2,1.7,0.4,2.6,0.5c0.4,0,0.7,0.3,0.7,0.7S199.1,209.1,198.7,209.1L198.7,209.1z M193.3,207.7
		c-0.1,0-0.2,0-0.2,0l-2.6-0.9c-0.4-0.1-0.6-0.5-0.4-0.9s0.5-0.6,0.9-0.4l2.6,0.9c0.4,0.1,0.6,0.5,0.4,0.9
		C193.9,207.6,193.6,207.8,193.3,207.7L193.3,207.7z M188.1,205.8c-0.1,0-0.2,0-0.2-0.1l-2.6-1c-0.4-0.1-0.5-0.5-0.4-0.9
		c0,0,0,0,0,0c0.1-0.4,0.5-0.5,0.9-0.4l2.6,1c0.4,0.1,0.6,0.5,0.4,0.9C188.7,205.7,188.4,205.8,188.1,205.8L188.1,205.8z
		 M182.9,203.8c-0.1,0-0.2,0-0.3-0.1c-0.9-0.3-1.7-0.7-2.6-1.1c-0.4-0.2-0.5-0.6-0.4-0.9s0.6-0.5,0.9-0.4c0.8,0.4,1.7,0.7,2.6,1
		c0.4,0.1,0.5,0.6,0.4,0.9c0,0,0,0,0,0C183.5,203.7,183.2,203.9,182.9,203.8L182.9,203.8z M177.8,201.7c-0.1,0-0.2,0-0.3-0.1
		c-0.9-0.4-1.7-0.8-2.5-1.2c-0.4-0.1-0.5-0.5-0.4-0.9c0.1-0.4,0.5-0.5,0.9-0.4c0,0,0.1,0,0.1,0c0.8,0.4,1.7,0.8,2.5,1.1
		c0.4,0.2,0.5,0.6,0.4,0.9c0,0,0,0,0,0C178.4,201.6,178.1,201.7,177.8,201.7L177.8,201.7z M172.8,199.3c-0.1,0-0.2,0-0.3-0.1
		c-0.8-0.4-1.6-0.9-2.5-1.3c-0.3-0.2-0.5-0.6-0.3-1c0,0,0,0,0,0c0.2-0.3,0.6-0.5,1-0.3c0,0,0,0,0,0c0.8,0.4,1.6,0.9,2.4,1.3
		c0.3,0.2,0.5,0.6,0.3,0.9C173.4,199.2,173.1,199.3,172.8,199.3L172.8,199.3z M168,196.6c-0.1,0-0.3,0-0.4-0.1
		c-0.8-0.5-1.6-1-2.4-1.5c-0.3-0.2-0.4-0.6-0.2-1c0.2-0.3,0.6-0.4,1-0.2c0,0,0,0,0.1,0c0.8,0.5,1.5,1,2.3,1.5c0.3,0.2,0.4,0.6,0.2,1
		C168.5,196.5,168.2,196.6,168,196.6z M163.4,193.5c-0.1,0-0.3,0-0.4-0.1l-0.8-0.6c-0.5-0.4-0.9-0.7-1.4-1.1c-0.3-0.2-0.4-0.7-0.1-1
		c0,0,0,0,0,0c0.2-0.3,0.7-0.3,1-0.1c0,0,0,0,0,0c0.4,0.4,0.9,0.7,1.3,1.1c0.3,0.2,0.5,0.4,0.8,0.6c0.3,0.2,0.4,0.7,0.2,1
		c0,0,0,0,0,0C163.9,193.4,163.6,193.5,163.4,193.5L163.4,193.5z M159.2,190c-0.2,0-0.4-0.1-0.5-0.2c-0.7-0.6-1.3-1.3-2-2
		c-0.3-0.3-0.3-0.7,0-1c0.3-0.3,0.7-0.3,1,0c0,0,0,0,0,0c0.6,0.7,1.3,1.3,1.9,1.9c0.3,0.3,0.3,0.7,0,1c0,0,0,0,0,0
		C159.5,189.9,159.3,190,159.2,190z M155.4,186c-0.2,0-0.4-0.1-0.5-0.2c-0.6-0.7-1.2-1.5-1.7-2.2c-0.2-0.3-0.2-0.7,0.1-1
		c0.3-0.2,0.7-0.2,1,0.1c0,0,0,0.1,0.1,0.1c0.5,0.7,1.1,1.4,1.7,2.1c0.2,0.3,0.2,0.7-0.1,1C155.7,185.9,155.5,186,155.4,186
		L155.4,186z M152.1,181.5c-0.2,0-0.5-0.1-0.6-0.3c-0.5-0.8-1-1.6-1.4-2.4c-0.2-0.3-0.1-0.8,0.3-0.9c0,0,0,0,0,0
		c0.3-0.2,0.8-0.1,0.9,0.3c0,0,0,0,0,0c0.4,0.8,0.9,1.6,1.4,2.4c0.2,0.3,0.1,0.8-0.2,1C152.4,181.5,152.2,181.5,152.1,181.5z
		 M149.5,176.6c-0.3,0-0.5-0.2-0.6-0.4c-0.4-0.9-0.7-1.8-1-2.6c-0.1-0.4,0.1-0.8,0.4-0.9c0.4-0.1,0.8,0.1,0.9,0.4
		c0.3,0.8,0.6,1.7,1,2.5c0.2,0.4,0,0.8-0.4,0.9c0,0,0,0,0,0C149.7,176.6,149.6,176.6,149.5,176.6L149.5,176.6z M147.8,171.4
		c-0.3,0-0.6-0.2-0.7-0.5c-0.2-0.9-0.4-1.9-0.5-2.8c-0.1-0.4,0.2-0.7,0.6-0.8c0,0,0,0,0,0c0.4,0,0.7,0.2,0.8,0.6
		c0.1,0.9,0.3,1.8,0.5,2.7c0.1,0.4-0.1,0.8-0.5,0.8L147.8,171.4z"></path><path class="st3" d="M147,165.9c-0.4,0-0.7-0.3-0.7-0.7c0-0.5,0-1,0-1.4c0-0.4,0.3-0.7,0.7-0.7c0,0,0,0,0,0c0.4,0,0.7,0.3,0.7,0.7
		c0,0,0,0,0,0c0,0.5,0,0.9,0,1.4C147.7,165.5,147.4,165.8,147,165.9L147,165.9z"></path><path class="st2" d="M148.6,146.6c8.6-7.6,11.4-19.8,7.1-30.3c0,0-9.9,0.2-13,11.7S148.6,146.6,148.6,146.6z"></path><path class="st3" d="M148.6,147.4c-0.2,0-0.3-0.1-0.4-0.1c-0.1-0.1-9.4-7.6-6.1-19.4s13.6-12.2,13.7-12.2c0.3,0,0.6,0.2,0.7,0.4
		c4.3,10.9,1.4,23.3-7.4,31.1C148.9,147.3,148.7,147.3,148.6,147.4z M155.2,117c-2,0.2-9.2,1.7-11.9,11.1s3.5,15.9,5.2,17.5
		C150.9,143.6,161,133.3,155.2,117z"></path><path class="st3" d="M149.9,153.9c-0.3,0-0.6-0.2-0.6-0.5c-5.6-15.1,5.4-36.6,5.9-37.5c0.2-0.3,0.6-0.5,0.9-0.3
		c0.3,0.2,0.5,0.6,0.3,0.9c-0.1,0.2-11.2,21.8-5.8,36.4c0.1,0.3,0,0.7-0.4,0.9c0,0,0,0,0,0C150,153.9,149.9,153.9,149.9,153.9z"></path><path class="st2" d="M131.4,289c8.6,7.6,11.4,19.8,7.1,30.4c0,0-9.9-0.2-13-11.7S131.4,289,131.4,289z"></path><path class="st3" d="M138.5,320.1L138.5,320.1c-0.1,0-10.4-0.4-13.7-12.2s6.1-19.3,6.1-19.4c0.3-0.2,0.6-0.2,0.9,0
		c8.7,7.8,11.7,20.3,7.3,31.1C139.1,319.9,138.8,320.1,138.5,320.1z M131.4,289.9c-1.8,1.6-7.9,8-5.2,17.5
		c2.6,9.5,9.9,10.9,11.9,11.1C141.9,308.6,139.3,297.3,131.4,289.9z"></path><path class="st3" d="M138.5,320.1c-0.3,0-0.5-0.1-0.6-0.4c-0.5-0.9-11.4-22.4-5.9-37.5c0.1-0.4,0.5-0.5,0.9-0.4
		c0.4,0.1,0.5,0.5,0.4,0.9c0,0,0,0,0,0c-5.3,14.5,5.7,36.1,5.8,36.3c0.2,0.3,0,0.8-0.3,1C138.8,320,138.6,320,138.5,320.1z"></path><path class="st2" d="M137,204.6c-9.1,6.9-21.6,7.4-31.2,1.2c0,0,2.1-9.6,14-10.5S137,204.6,137,204.6z"></path><path class="st3" d="M120.5,210.9c-5.3-0.1-10.6-1.6-15.1-4.5c-0.3-0.2-0.4-0.5-0.3-0.8c0-0.1,2.4-10.1,14.6-11.1
		s17.8,9.6,17.9,9.7c0.2,0.3,0.1,0.6-0.2,0.9C132.5,208.8,126.6,210.8,120.5,210.9z M106.6,205.5c14.9,8.8,26.9,0.9,29.4-1
		c-1.2-2-6.3-9.3-16.2-8.5S107.2,203.6,106.6,205.5L106.6,205.5z"></path><path class="st3" d="M143.2,207.8c-0.1,0-0.3,0-0.4-0.1c-13.2-8-36.6-1.3-36.8-1.2c-0.4,0.1-0.8-0.1-0.9-0.5
		c-0.1-0.4,0.1-0.8,0.5-0.9c1-0.3,24.2-6.9,37.9,1.4c0.3,0.2,0.4,0.6,0.2,1C143.6,207.7,143.4,207.8,143.2,207.8L143.2,207.8z"></path></g></svg>